<mxfile host="app.diagrams.net" agent="Mozilla/5.0 (Windows NT 10.0; Win64; x64) AppleWebKit/537.36 (KHTML, like Gecko) Chrome/133.0.0.0 Safari/537.36 OPR/118.0.0.0" version="27.0.1">
  <diagram name="Page-1" id="Cy6yW5A_cHNXegyow2vB">
    <mxGraphModel dx="1185" dy="674" grid="1" gridSize="10" guides="1" tooltips="1" connect="1" arrows="1" fold="1" page="1" pageScale="1" pageWidth="827" pageHeight="1169" math="0" shadow="0">
      <root>
        <mxCell id="0" />
        <mxCell id="1" parent="0" />
        <mxCell id="-CWuIV_Jq0UuFSlZPUt0-4" value="Pentalingo" style="shape=umlFrame;whiteSpace=wrap;html=1;pointerEvents=0;fillColor=default;gradientColor=none;swimlaneFillColor=default;" vertex="1" parent="1">
          <mxGeometry x="15" y="20" width="1115" height="720" as="geometry" />
        </mxCell>
        <mxCell id="-CWuIV_Jq0UuFSlZPUt0-1" value="" style="ellipse;whiteSpace=wrap;html=1;aspect=fixed;fillColor=#000000;" vertex="1" parent="1">
          <mxGeometry x="70" y="80" width="20" height="20" as="geometry" />
        </mxCell>
        <mxCell id="-CWuIV_Jq0UuFSlZPUt0-3" value="" style="endArrow=classic;html=1;rounded=0;exitX=0.5;exitY=1;exitDx=0;exitDy=0;" edge="1" parent="1" source="-CWuIV_Jq0UuFSlZPUt0-1">
          <mxGeometry width="50" height="50" relative="1" as="geometry">
            <mxPoint x="310" y="240" as="sourcePoint" />
            <mxPoint x="80" y="160" as="targetPoint" />
          </mxGeometry>
        </mxCell>
        <mxCell id="-CWuIV_Jq0UuFSlZPUt0-14" value="wartend" style="swimlane;fontStyle=1;align=center;verticalAlign=middle;childLayout=stackLayout;horizontal=1;startSize=30;horizontalStack=0;resizeParent=0;resizeLast=1;container=0;fontColor=#000000;collapsible=0;rounded=1;arcSize=30;strokeColor=#000000;fillColor=#ffffc0;swimlaneFillColor=#ffffc0;dropTarget=0;" vertex="1" parent="1">
          <mxGeometry x="40" y="160" width="90" height="60" as="geometry" />
        </mxCell>
        <mxCell id="-CWuIV_Jq0UuFSlZPUt0-18" value="" style="edgeStyle=orthogonalEdgeStyle;html=1;verticalAlign=bottom;endArrow=open;endSize=8;strokeColor=#000000;rounded=0;" edge="1" parent="1" source="-CWuIV_Jq0UuFSlZPUt0-14" target="-CWuIV_Jq0UuFSlZPUt0-17">
          <mxGeometry relative="1" as="geometry">
            <mxPoint x="210" y="190" as="targetPoint" />
            <mxPoint x="130" y="190" as="sourcePoint" />
          </mxGeometry>
        </mxCell>
        <mxCell id="-CWuIV_Jq0UuFSlZPUt0-17" value="" style="ellipse;whiteSpace=wrap;html=1;aspect=fixed;fillColor=#000000;" vertex="1" parent="1">
          <mxGeometry x="180" y="180" width="20" height="20" as="geometry" />
        </mxCell>
        <mxCell id="-CWuIV_Jq0UuFSlZPUt0-19" value="" style="edgeStyle=orthogonalEdgeStyle;html=1;verticalAlign=bottom;endArrow=open;endSize=8;strokeColor=#000000;rounded=0;exitX=0.5;exitY=0;exitDx=0;exitDy=0;" edge="1" parent="1" source="-CWuIV_Jq0UuFSlZPUt0-17">
          <mxGeometry relative="1" as="geometry">
            <mxPoint x="280" y="110" as="targetPoint" />
            <mxPoint x="140" y="200" as="sourcePoint" />
            <Array as="points">
              <mxPoint x="190" y="110" />
            </Array>
          </mxGeometry>
        </mxCell>
        <mxCell id="-CWuIV_Jq0UuFSlZPUt0-20" value="wartend" style="swimlane;fontStyle=1;align=center;verticalAlign=middle;childLayout=stackLayout;horizontal=1;startSize=30;horizontalStack=0;resizeParent=0;resizeLast=1;container=0;fontColor=#000000;collapsible=0;rounded=1;arcSize=30;strokeColor=#000000;fillColor=#ffffc0;swimlaneFillColor=#ffffc0;dropTarget=0;" vertex="1" parent="1">
          <mxGeometry x="280" y="80" width="90" height="60" as="geometry" />
        </mxCell>
        <mxCell id="-CWuIV_Jq0UuFSlZPUt0-22" value="wartend" style="swimlane;fontStyle=1;align=center;verticalAlign=middle;childLayout=stackLayout;horizontal=1;startSize=30;horizontalStack=0;resizeParent=0;resizeLast=1;container=0;fontColor=#000000;collapsible=0;rounded=1;arcSize=30;strokeColor=#000000;fillColor=#ffffc0;swimlaneFillColor=#ffffc0;dropTarget=0;labelPosition=center;verticalLabelPosition=middle;" vertex="1" parent="1">
          <mxGeometry x="280" y="250" width="90" height="60" as="geometry" />
        </mxCell>
        <mxCell id="-CWuIV_Jq0UuFSlZPUt0-23" value="" style="endArrow=classic;html=1;rounded=0;entryX=0;entryY=0.5;entryDx=0;entryDy=0;exitX=0.5;exitY=1;exitDx=0;exitDy=0;" edge="1" parent="1" source="-CWuIV_Jq0UuFSlZPUt0-17" target="-CWuIV_Jq0UuFSlZPUt0-22">
          <mxGeometry width="50" height="50" relative="1" as="geometry">
            <mxPoint x="230" y="100" as="sourcePoint" />
            <mxPoint x="280" y="50" as="targetPoint" />
            <Array as="points">
              <mxPoint x="190" y="280" />
            </Array>
          </mxGeometry>
        </mxCell>
        <mxCell id="-CWuIV_Jq0UuFSlZPUt0-26" value="" style="endArrow=classic;html=1;rounded=0;exitX=1;exitY=0.5;exitDx=0;exitDy=0;entryX=0;entryY=0.5;entryDx=0;entryDy=0;" edge="1" parent="1" source="-CWuIV_Jq0UuFSlZPUt0-20" target="-CWuIV_Jq0UuFSlZPUt0-27">
          <mxGeometry width="50" height="50" relative="1" as="geometry">
            <mxPoint x="240" y="260" as="sourcePoint" />
            <mxPoint x="410" y="110" as="targetPoint" />
          </mxGeometry>
        </mxCell>
        <mxCell id="-CWuIV_Jq0UuFSlZPUt0-27" value="" style="ellipse;whiteSpace=wrap;html=1;aspect=fixed;fillColor=#000000;" vertex="1" parent="1">
          <mxGeometry x="404" y="100" width="20" height="20" as="geometry" />
        </mxCell>
        <mxCell id="-CWuIV_Jq0UuFSlZPUt0-28" value="" style="endArrow=classic;html=1;rounded=0;exitX=1;exitY=0.5;exitDx=0;exitDy=0;entryX=0;entryY=0.5;entryDx=0;entryDy=0;" edge="1" parent="1" source="-CWuIV_Jq0UuFSlZPUt0-27" target="-CWuIV_Jq0UuFSlZPUt0-29">
          <mxGeometry width="50" height="50" relative="1" as="geometry">
            <mxPoint x="414" y="100" as="sourcePoint" />
            <mxPoint x="414" y="70" as="targetPoint" />
            <Array as="points">
              <mxPoint x="440" y="110" />
            </Array>
          </mxGeometry>
        </mxCell>
        <mxCell id="-CWuIV_Jq0UuFSlZPUt0-29" value="Anpassen" style="swimlane;fontStyle=1;align=center;verticalAlign=middle;childLayout=stackLayout;horizontal=1;startSize=30;horizontalStack=0;resizeParent=0;resizeLast=1;container=0;fontColor=#000000;collapsible=0;rounded=1;arcSize=30;strokeColor=#000000;fillColor=#ffffc0;swimlaneFillColor=#ffffc0;dropTarget=0;" vertex="1" parent="1">
          <mxGeometry x="580" y="80" width="116" height="60" as="geometry" />
        </mxCell>
        <mxCell id="-CWuIV_Jq0UuFSlZPUt0-30" value="" style="endArrow=classic;html=1;rounded=0;exitX=0.5;exitY=1;exitDx=0;exitDy=0;" edge="1" parent="1" source="-CWuIV_Jq0UuFSlZPUt0-27">
          <mxGeometry width="50" height="50" relative="1" as="geometry">
            <mxPoint x="280" y="190" as="sourcePoint" />
            <mxPoint x="414" y="160" as="targetPoint" />
          </mxGeometry>
        </mxCell>
        <mxCell id="-CWuIV_Jq0UuFSlZPUt0-31" value="Decks Screen" style="swimlane;fontStyle=1;align=center;verticalAlign=middle;childLayout=stackLayout;horizontal=1;startSize=30;horizontalStack=0;resizeParent=0;resizeLast=1;container=0;fontColor=#000000;collapsible=0;rounded=1;arcSize=30;strokeColor=#000000;fillColor=#ffffc0;swimlaneFillColor=#ffffc0;dropTarget=0;labelPosition=center;verticalLabelPosition=middle;" vertex="1" parent="1">
          <mxGeometry x="370" y="160" width="90" height="60" as="geometry" />
        </mxCell>
        <mxCell id="-CWuIV_Jq0UuFSlZPUt0-32" value="" style="endArrow=classic;html=1;rounded=0;exitX=1;exitY=0.5;exitDx=0;exitDy=0;" edge="1" parent="1" source="-CWuIV_Jq0UuFSlZPUt0-31">
          <mxGeometry width="50" height="50" relative="1" as="geometry">
            <mxPoint x="320" y="280" as="sourcePoint" />
            <mxPoint x="520" y="250" as="targetPoint" />
            <Array as="points">
              <mxPoint x="520" y="190" />
            </Array>
          </mxGeometry>
        </mxCell>
        <mxCell id="-CWuIV_Jq0UuFSlZPUt0-33" value="wartend" style="swimlane;fontStyle=1;align=center;verticalAlign=middle;childLayout=stackLayout;horizontal=1;startSize=30;horizontalStack=0;resizeParent=0;resizeLast=1;container=0;fontColor=#000000;collapsible=0;rounded=1;arcSize=30;strokeColor=#000000;fillColor=#ffffc0;swimlaneFillColor=#ffffc0;dropTarget=0;labelPosition=center;verticalLabelPosition=middle;" vertex="1" parent="1">
          <mxGeometry x="490" y="250" width="90" height="60" as="geometry" />
        </mxCell>
        <mxCell id="-CWuIV_Jq0UuFSlZPUt0-34" value="wartend" style="swimlane;fontStyle=1;align=center;verticalAlign=middle;childLayout=stackLayout;horizontal=1;startSize=30;horizontalStack=0;resizeParent=0;resizeLast=1;container=0;fontColor=#000000;collapsible=0;rounded=1;arcSize=30;strokeColor=#000000;fillColor=#ffffc0;swimlaneFillColor=#ffffc0;dropTarget=0;labelPosition=center;verticalLabelPosition=middle;" vertex="1" parent="1">
          <mxGeometry x="688" y="250" width="104" height="60" as="geometry" />
        </mxCell>
        <mxCell id="-CWuIV_Jq0UuFSlZPUt0-35" value="Karte Bearbeiten" style="swimlane;fontStyle=1;align=center;verticalAlign=middle;childLayout=stackLayout;horizontal=1;startSize=30;horizontalStack=0;resizeParent=0;resizeLast=1;container=0;fontColor=#000000;collapsible=0;rounded=1;arcSize=30;strokeColor=#000000;fillColor=#ffffc0;swimlaneFillColor=#ffffc0;dropTarget=0;labelPosition=center;verticalLabelPosition=middle;" vertex="1" parent="1">
          <mxGeometry x="890" y="250" width="104" height="60" as="geometry" />
        </mxCell>
        <mxCell id="-CWuIV_Jq0UuFSlZPUt0-36" value="" style="ellipse;whiteSpace=wrap;html=1;aspect=fixed;fillColor=#000000;" vertex="1" parent="1">
          <mxGeometry x="600" y="270" width="20" height="20" as="geometry" />
        </mxCell>
        <mxCell id="-CWuIV_Jq0UuFSlZPUt0-37" value="" style="endArrow=classic;html=1;rounded=0;entryX=0;entryY=0.5;entryDx=0;entryDy=0;" edge="1" parent="1" target="-CWuIV_Jq0UuFSlZPUt0-34">
          <mxGeometry width="50" height="50" relative="1" as="geometry">
            <mxPoint x="640" y="280" as="sourcePoint" />
            <mxPoint x="630" y="280" as="targetPoint" />
            <Array as="points">
              <mxPoint x="620" y="280" />
            </Array>
          </mxGeometry>
        </mxCell>
        <mxCell id="-CWuIV_Jq0UuFSlZPUt0-39" value="" style="endArrow=classic;html=1;rounded=0;entryX=0;entryY=0.5;entryDx=0;entryDy=0;exitX=1;exitY=0.5;exitDx=0;exitDy=0;" edge="1" parent="1" source="-CWuIV_Jq0UuFSlZPUt0-33" target="-CWuIV_Jq0UuFSlZPUt0-36">
          <mxGeometry width="50" height="50" relative="1" as="geometry">
            <mxPoint x="460" y="320" as="sourcePoint" />
            <mxPoint x="510" y="270" as="targetPoint" />
          </mxGeometry>
        </mxCell>
        <mxCell id="-CWuIV_Jq0UuFSlZPUt0-40" value="" style="endArrow=classic;html=1;rounded=0;exitX=0.5;exitY=1;exitDx=0;exitDy=0;entryX=0.5;entryY=1;entryDx=0;entryDy=0;" edge="1" parent="1" source="-CWuIV_Jq0UuFSlZPUt0-36" target="-CWuIV_Jq0UuFSlZPUt0-22">
          <mxGeometry width="50" height="50" relative="1" as="geometry">
            <mxPoint x="570" y="290" as="sourcePoint" />
            <mxPoint x="610" y="490" as="targetPoint" />
            <Array as="points">
              <mxPoint x="610" y="480" />
              <mxPoint x="325" y="480" />
            </Array>
          </mxGeometry>
        </mxCell>
        <mxCell id="-CWuIV_Jq0UuFSlZPUt0-74" style="edgeStyle=orthogonalEdgeStyle;rounded=0;orthogonalLoop=1;jettySize=auto;html=1;exitX=0.5;exitY=1;exitDx=0;exitDy=0;entryX=0.5;entryY=1;entryDx=0;entryDy=0;" edge="1" parent="1" source="-CWuIV_Jq0UuFSlZPUt0-41" target="-CWuIV_Jq0UuFSlZPUt0-33">
          <mxGeometry relative="1" as="geometry">
            <mxPoint x="830" y="400" as="targetPoint" />
          </mxGeometry>
        </mxCell>
        <mxCell id="-CWuIV_Jq0UuFSlZPUt0-41" value="" style="ellipse;whiteSpace=wrap;html=1;aspect=fixed;fillColor=#000000;" vertex="1" parent="1">
          <mxGeometry x="820" y="270" width="20" height="20" as="geometry" />
        </mxCell>
        <mxCell id="-CWuIV_Jq0UuFSlZPUt0-45" value="do / Farbschema anpassen" style="text;html=1;align=center;verticalAlign=middle;whiteSpace=wrap;rounded=0;" vertex="1" parent="1">
          <mxGeometry x="588" y="110" width="100" height="30" as="geometry" />
        </mxCell>
        <mxCell id="-CWuIV_Jq0UuFSlZPUt0-47" value="Hell-/Dunkelmodus selcted" style="text;html=1;align=center;verticalAlign=middle;whiteSpace=wrap;rounded=0;" vertex="1" parent="1">
          <mxGeometry x="445" y="80" width="120" height="30" as="geometry" />
        </mxCell>
        <mxCell id="-CWuIV_Jq0UuFSlZPUt0-48" value="Deck importieren selcted" style="text;html=1;align=center;verticalAlign=middle;whiteSpace=wrap;rounded=0;" vertex="1" parent="1">
          <mxGeometry x="408" y="130" width="120" height="30" as="geometry" />
        </mxCell>
        <mxCell id="-CWuIV_Jq0UuFSlZPUt0-49" value="do / import Deck" style="text;html=1;align=center;verticalAlign=middle;whiteSpace=wrap;rounded=0;" vertex="1" parent="1">
          <mxGeometry x="384" y="190" width="60" height="30" as="geometry" />
        </mxCell>
        <mxCell id="-CWuIV_Jq0UuFSlZPUt0-50" value="Settings selected" style="text;html=1;align=center;verticalAlign=middle;whiteSpace=wrap;rounded=0;" vertex="1" parent="1">
          <mxGeometry x="210" y="80" width="60" height="30" as="geometry" />
        </mxCell>
        <mxCell id="-CWuIV_Jq0UuFSlZPUt0-51" value="Decks selcted" style="text;html=1;align=center;verticalAlign=middle;whiteSpace=wrap;rounded=0;" vertex="1" parent="1">
          <mxGeometry x="210" y="250" width="60" height="30" as="geometry" />
        </mxCell>
        <mxCell id="-CWuIV_Jq0UuFSlZPUt0-53" value="" style="ellipse;whiteSpace=wrap;html=1;aspect=fixed;fillColor=#000000;" vertex="1" parent="1">
          <mxGeometry x="408" y="270" width="20" height="20" as="geometry" />
        </mxCell>
        <mxCell id="-CWuIV_Jq0UuFSlZPUt0-54" value="" style="endArrow=classic;html=1;rounded=0;exitX=1;exitY=0.5;exitDx=0;exitDy=0;" edge="1" parent="1" source="-CWuIV_Jq0UuFSlZPUt0-22">
          <mxGeometry width="50" height="50" relative="1" as="geometry">
            <mxPoint x="360" y="330" as="sourcePoint" />
            <mxPoint x="410" y="280" as="targetPoint" />
          </mxGeometry>
        </mxCell>
        <mxCell id="-CWuIV_Jq0UuFSlZPUt0-55" value="" style="endArrow=classic;html=1;rounded=0;exitX=1;exitY=0.5;exitDx=0;exitDy=0;entryX=0;entryY=0.5;entryDx=0;entryDy=0;" edge="1" parent="1" source="-CWuIV_Jq0UuFSlZPUt0-53" target="-CWuIV_Jq0UuFSlZPUt0-33">
          <mxGeometry width="50" height="50" relative="1" as="geometry">
            <mxPoint x="380" y="290" as="sourcePoint" />
            <mxPoint x="420" y="290" as="targetPoint" />
          </mxGeometry>
        </mxCell>
        <mxCell id="-CWuIV_Jq0UuFSlZPUt0-56" value="" style="endArrow=classic;html=1;rounded=0;exitX=0.5;exitY=1;exitDx=0;exitDy=0;" edge="1" parent="1" source="-CWuIV_Jq0UuFSlZPUt0-53">
          <mxGeometry width="50" height="50" relative="1" as="geometry">
            <mxPoint x="438" y="290" as="sourcePoint" />
            <mxPoint x="418" y="390" as="targetPoint" />
          </mxGeometry>
        </mxCell>
        <mxCell id="-CWuIV_Jq0UuFSlZPUt0-57" value="wartend" style="swimlane;fontStyle=1;align=center;verticalAlign=middle;childLayout=stackLayout;horizontal=1;startSize=30;horizontalStack=0;resizeParent=0;resizeLast=1;container=0;fontColor=#000000;collapsible=0;rounded=1;arcSize=30;strokeColor=#000000;fillColor=#ffffc0;swimlaneFillColor=#ffffc0;dropTarget=0;labelPosition=center;verticalLabelPosition=middle;" vertex="1" parent="1">
          <mxGeometry x="373" y="390" width="90" height="60" as="geometry" />
        </mxCell>
        <mxCell id="-CWuIV_Jq0UuFSlZPUt0-58" value="" style="endArrow=classic;html=1;rounded=0;exitX=0.5;exitY=0;exitDx=0;exitDy=0;entryX=0.75;entryY=0;entryDx=0;entryDy=0;" edge="1" parent="1" source="-CWuIV_Jq0UuFSlZPUt0-27" target="-CWuIV_Jq0UuFSlZPUt0-14">
          <mxGeometry width="50" height="50" relative="1" as="geometry">
            <mxPoint x="370" y="330" as="sourcePoint" />
            <mxPoint x="420" y="280" as="targetPoint" />
            <Array as="points">
              <mxPoint x="414" y="70" />
              <mxPoint x="108" y="70" />
            </Array>
          </mxGeometry>
        </mxCell>
        <mxCell id="-CWuIV_Jq0UuFSlZPUt0-59" value="zurück selected" style="text;html=1;align=center;verticalAlign=middle;whiteSpace=wrap;rounded=0;" vertex="1" parent="1">
          <mxGeometry x="230" y="30" width="60" height="30" as="geometry" />
        </mxCell>
        <mxCell id="-CWuIV_Jq0UuFSlZPUt0-60" value="" style="endArrow=classic;html=1;rounded=0;entryX=0.5;entryY=1;entryDx=0;entryDy=0;exitX=0.5;exitY=1;exitDx=0;exitDy=0;" edge="1" parent="1" source="-CWuIV_Jq0UuFSlZPUt0-45" target="-CWuIV_Jq0UuFSlZPUt0-20">
          <mxGeometry width="50" height="50" relative="1" as="geometry">
            <mxPoint x="320" y="250" as="sourcePoint" />
            <mxPoint x="370" y="200" as="targetPoint" />
            <Array as="points">
              <mxPoint x="640" y="230" />
              <mxPoint x="325" y="230" />
            </Array>
          </mxGeometry>
        </mxCell>
        <mxCell id="-CWuIV_Jq0UuFSlZPUt0-61" value="" style="endArrow=classic;html=1;rounded=0;exitX=0;exitY=1;exitDx=0;exitDy=0;entryX=0.75;entryY=1;entryDx=0;entryDy=0;" edge="1" parent="1" source="-CWuIV_Jq0UuFSlZPUt0-53" target="-CWuIV_Jq0UuFSlZPUt0-14">
          <mxGeometry width="50" height="50" relative="1" as="geometry">
            <mxPoint x="300" y="300" as="sourcePoint" />
            <mxPoint x="80" y="220" as="targetPoint" />
            <Array as="points">
              <mxPoint x="320" y="360" />
              <mxPoint x="108" y="360" />
            </Array>
          </mxGeometry>
        </mxCell>
        <mxCell id="-CWuIV_Jq0UuFSlZPUt0-63" value="zurück selected" style="text;html=1;align=center;verticalAlign=middle;whiteSpace=wrap;rounded=0;" vertex="1" parent="1">
          <mxGeometry x="160" y="330" width="60" height="30" as="geometry" />
        </mxCell>
        <mxCell id="-CWuIV_Jq0UuFSlZPUt0-64" value="Deck Management selected" style="text;html=1;align=center;verticalAlign=middle;whiteSpace=wrap;rounded=0;" vertex="1" parent="1">
          <mxGeometry x="428" y="240" width="60" height="30" as="geometry" />
        </mxCell>
        <mxCell id="-CWuIV_Jq0UuFSlZPUt0-65" value="start Deck&lt;div&gt;Selected&lt;/div&gt;" style="text;html=1;align=center;verticalAlign=middle;whiteSpace=wrap;rounded=0;" vertex="1" parent="1">
          <mxGeometry x="424" y="330" width="60" height="30" as="geometry" />
        </mxCell>
        <mxCell id="-CWuIV_Jq0UuFSlZPUt0-67" value="zurück selected" style="text;html=1;align=center;verticalAlign=middle;whiteSpace=wrap;rounded=0;" vertex="1" parent="1">
          <mxGeometry x="550" y="350" width="60" height="30" as="geometry" />
        </mxCell>
        <mxCell id="-CWuIV_Jq0UuFSlZPUt0-68" value="Deck Name ändern" style="swimlane;fontStyle=1;align=center;verticalAlign=middle;childLayout=stackLayout;horizontal=1;startSize=30;horizontalStack=0;resizeParent=0;resizeLast=1;container=0;fontColor=#000000;collapsible=0;rounded=1;arcSize=30;strokeColor=#000000;fillColor=#ffffc0;swimlaneFillColor=#ffffc0;dropTarget=0;labelPosition=center;verticalLabelPosition=middle;" vertex="1" parent="1">
          <mxGeometry x="769" y="140" width="122" height="60" as="geometry" />
        </mxCell>
        <mxCell id="-CWuIV_Jq0UuFSlZPUt0-69" value="Deck bearbeiten selected" style="text;html=1;align=center;verticalAlign=middle;whiteSpace=wrap;rounded=0;" vertex="1" parent="1">
          <mxGeometry x="620" y="240" width="60" height="30" as="geometry" />
        </mxCell>
        <mxCell id="-CWuIV_Jq0UuFSlZPUt0-73" value="" style="endArrow=classic;html=1;rounded=0;exitX=1;exitY=0.5;exitDx=0;exitDy=0;entryX=0;entryY=0.5;entryDx=0;entryDy=0;" edge="1" parent="1" source="-CWuIV_Jq0UuFSlZPUt0-34" target="-CWuIV_Jq0UuFSlZPUt0-41">
          <mxGeometry width="50" height="50" relative="1" as="geometry">
            <mxPoint x="510" y="420" as="sourcePoint" />
            <mxPoint x="830" y="310" as="targetPoint" />
          </mxGeometry>
        </mxCell>
        <mxCell id="-CWuIV_Jq0UuFSlZPUt0-75" value="zurück selected" style="text;html=1;align=center;verticalAlign=middle;whiteSpace=wrap;rounded=0;" vertex="1" parent="1">
          <mxGeometry x="827" y="300" width="60" height="30" as="geometry" />
        </mxCell>
        <mxCell id="-CWuIV_Jq0UuFSlZPUt0-76" value="" style="endArrow=classic;html=1;rounded=0;exitX=0.5;exitY=0;exitDx=0;exitDy=0;entryX=0.5;entryY=1;entryDx=0;entryDy=0;" edge="1" parent="1" source="-CWuIV_Jq0UuFSlZPUt0-41" target="-CWuIV_Jq0UuFSlZPUt0-68">
          <mxGeometry width="50" height="50" relative="1" as="geometry">
            <mxPoint x="830" y="420" as="sourcePoint" />
            <mxPoint x="880" y="370" as="targetPoint" />
          </mxGeometry>
        </mxCell>
        <mxCell id="-CWuIV_Jq0UuFSlZPUt0-77" value="" style="endArrow=classic;html=1;rounded=0;exitX=1;exitY=0.5;exitDx=0;exitDy=0;entryX=0;entryY=0.5;entryDx=0;entryDy=0;" edge="1" parent="1" source="-CWuIV_Jq0UuFSlZPUt0-41" target="-CWuIV_Jq0UuFSlZPUt0-35">
          <mxGeometry width="50" height="50" relative="1" as="geometry">
            <mxPoint x="830" y="420" as="sourcePoint" />
            <mxPoint x="880" y="370" as="targetPoint" />
          </mxGeometry>
        </mxCell>
        <mxCell id="-CWuIV_Jq0UuFSlZPUt0-79" value="do / change Deck Name" style="text;html=1;align=center;verticalAlign=middle;whiteSpace=wrap;rounded=0;" vertex="1" parent="1">
          <mxGeometry x="785" y="170" width="90" height="30" as="geometry" />
        </mxCell>
        <mxCell id="-CWuIV_Jq0UuFSlZPUt0-80" value="" style="endArrow=classic;html=1;rounded=0;entryX=0.5;entryY=0;entryDx=0;entryDy=0;exitX=0;exitY=0.5;exitDx=0;exitDy=0;" edge="1" parent="1" source="-CWuIV_Jq0UuFSlZPUt0-68" target="-CWuIV_Jq0UuFSlZPUt0-34">
          <mxGeometry width="50" height="50" relative="1" as="geometry">
            <mxPoint x="740" y="170" as="sourcePoint" />
            <mxPoint x="870" y="310" as="targetPoint" />
            <Array as="points">
              <mxPoint x="740" y="170" />
            </Array>
          </mxGeometry>
        </mxCell>
        <mxCell id="-CWuIV_Jq0UuFSlZPUt0-83" value="do / changeCard" style="text;html=1;align=center;verticalAlign=middle;whiteSpace=wrap;rounded=0;" vertex="1" parent="1">
          <mxGeometry x="910" y="280" width="60" height="30" as="geometry" />
        </mxCell>
        <mxCell id="-CWuIV_Jq0UuFSlZPUt0-84" value="" style="endArrow=classic;html=1;rounded=0;entryX=0.5;entryY=1;entryDx=0;entryDy=0;" edge="1" parent="1" target="-CWuIV_Jq0UuFSlZPUt0-34">
          <mxGeometry width="50" height="50" relative="1" as="geometry">
            <mxPoint x="940" y="310" as="sourcePoint" />
            <mxPoint x="1000" y="310" as="targetPoint" />
            <Array as="points">
              <mxPoint x="940" y="360" />
              <mxPoint x="740" y="360" />
            </Array>
          </mxGeometry>
        </mxCell>
        <mxCell id="-CWuIV_Jq0UuFSlZPUt0-86" value="editCard&lt;div&gt;selected&lt;/div&gt;" style="text;html=1;align=center;verticalAlign=middle;whiteSpace=wrap;rounded=0;" vertex="1" parent="1">
          <mxGeometry x="831" y="250" width="60" height="30" as="geometry" />
        </mxCell>
        <mxCell id="-CWuIV_Jq0UuFSlZPUt0-87" value="editName&lt;div&gt;selected&lt;/div&gt;" style="text;html=1;align=center;verticalAlign=middle;whiteSpace=wrap;rounded=0;" vertex="1" parent="1">
          <mxGeometry x="771" y="210" width="60" height="30" as="geometry" />
        </mxCell>
        <mxCell id="-CWuIV_Jq0UuFSlZPUt0-88" value="" style="endArrow=classic;html=1;rounded=0;exitX=0.5;exitY=1;exitDx=0;exitDy=0;" edge="1" parent="1" source="-CWuIV_Jq0UuFSlZPUt0-57">
          <mxGeometry width="50" height="50" relative="1" as="geometry">
            <mxPoint x="560" y="340" as="sourcePoint" />
            <mxPoint x="418" y="520" as="targetPoint" />
          </mxGeometry>
        </mxCell>
        <mxCell id="-CWuIV_Jq0UuFSlZPUt0-89" value="" style="ellipse;whiteSpace=wrap;html=1;aspect=fixed;fillColor=#000000;" vertex="1" parent="1">
          <mxGeometry x="408" y="520" width="20" height="20" as="geometry" />
        </mxCell>
        <mxCell id="-CWuIV_Jq0UuFSlZPUt0-90" value="" style="endArrow=classic;html=1;rounded=0;exitX=0;exitY=0.5;exitDx=0;exitDy=0;entryX=0.25;entryY=1;entryDx=0;entryDy=0;" edge="1" parent="1" source="-CWuIV_Jq0UuFSlZPUt0-89" target="-CWuIV_Jq0UuFSlZPUt0-22">
          <mxGeometry width="50" height="50" relative="1" as="geometry">
            <mxPoint x="560" y="340" as="sourcePoint" />
            <mxPoint x="300" y="530" as="targetPoint" />
            <Array as="points">
              <mxPoint x="303" y="530" />
            </Array>
          </mxGeometry>
        </mxCell>
        <mxCell id="-CWuIV_Jq0UuFSlZPUt0-91" value="zurück selected" style="text;html=1;align=center;verticalAlign=middle;whiteSpace=wrap;rounded=0;" vertex="1" parent="1">
          <mxGeometry x="300" y="500" width="60" height="30" as="geometry" />
        </mxCell>
        <mxCell id="-CWuIV_Jq0UuFSlZPUt0-92" value="Next Word" style="swimlane;fontStyle=1;align=center;verticalAlign=middle;childLayout=stackLayout;horizontal=1;startSize=30;horizontalStack=0;resizeParent=0;resizeLast=1;container=0;fontColor=#000000;collapsible=0;rounded=1;arcSize=30;strokeColor=#000000;fillColor=#ffffc0;swimlaneFillColor=#ffffc0;dropTarget=0;labelPosition=center;verticalLabelPosition=middle;" vertex="1" parent="1">
          <mxGeometry x="373" y="585" width="90" height="60" as="geometry" />
        </mxCell>
        <mxCell id="-CWuIV_Jq0UuFSlZPUt0-93" value="" style="endArrow=classic;html=1;rounded=0;entryX=0.5;entryY=0;entryDx=0;entryDy=0;exitX=0.5;exitY=1;exitDx=0;exitDy=0;" edge="1" parent="1" source="-CWuIV_Jq0UuFSlZPUt0-89" target="-CWuIV_Jq0UuFSlZPUt0-92">
          <mxGeometry width="50" height="50" relative="1" as="geometry">
            <mxPoint x="580" y="450" as="sourcePoint" />
            <mxPoint x="630" y="400" as="targetPoint" />
          </mxGeometry>
        </mxCell>
        <mxCell id="-CWuIV_Jq0UuFSlZPUt0-94" value="nextWord&lt;div&gt;selected&lt;/div&gt;" style="text;html=1;align=center;verticalAlign=middle;whiteSpace=wrap;rounded=0;" vertex="1" parent="1">
          <mxGeometry x="414" y="550" width="60" height="30" as="geometry" />
        </mxCell>
        <mxCell id="-CWuIV_Jq0UuFSlZPUt0-95" value="do / next Word from deck" style="text;html=1;align=center;verticalAlign=middle;whiteSpace=wrap;rounded=0;" vertex="1" parent="1">
          <mxGeometry x="378" y="615" width="82" height="30" as="geometry" />
        </mxCell>
        <mxCell id="-CWuIV_Jq0UuFSlZPUt0-96" value="" style="endArrow=classic;html=1;rounded=0;exitX=1;exitY=0;exitDx=0;exitDy=0;entryX=1;entryY=0.5;entryDx=0;entryDy=0;" edge="1" parent="1" source="-CWuIV_Jq0UuFSlZPUt0-95" target="-CWuIV_Jq0UuFSlZPUt0-57">
          <mxGeometry width="50" height="50" relative="1" as="geometry">
            <mxPoint x="510" y="520" as="sourcePoint" />
            <mxPoint x="560" y="470" as="targetPoint" />
            <Array as="points">
              <mxPoint x="560" y="615" />
              <mxPoint x="560" y="420" />
            </Array>
          </mxGeometry>
        </mxCell>
      </root>
    </mxGraphModel>
  </diagram>
</mxfile>
